<mxfile host="app.diagrams.net" modified="2022-06-15T07:04:11.288Z" agent="5.0 (Windows NT 10.0; Win64; x64) AppleWebKit/537.36 (KHTML, like Gecko) Chrome/102.0.5005.63 Safari/537.36 Edg/102.0.1245.39" etag="p8cTVA3DBpwDHLqoAAba" version="20.0.1" type="github">
  <diagram id="nP3pam8ixAQFUTBQVLIV" name="Page-1">
    <mxGraphModel dx="1718" dy="935" grid="1" gridSize="10" guides="1" tooltips="1" connect="1" arrows="1" fold="1" page="1" pageScale="1" pageWidth="827" pageHeight="1169" math="0" shadow="0">
      <root>
        <mxCell id="0" />
        <mxCell id="1" parent="0" />
        <mxCell id="FDw1WlZBPGpybuS3ri9s-63" value="" style="rounded=0;whiteSpace=wrap;html=1;dashed=1;" parent="1" vertex="1">
          <mxGeometry x="270" y="370" width="160" height="120" as="geometry" />
        </mxCell>
        <mxCell id="FDw1WlZBPGpybuS3ri9s-54" value="" style="rounded=0;whiteSpace=wrap;html=1;dashed=1;" parent="1" vertex="1">
          <mxGeometry x="150" y="140" width="420" height="80" as="geometry" />
        </mxCell>
        <mxCell id="FDw1WlZBPGpybuS3ri9s-8" value="" style="rounded=0;whiteSpace=wrap;html=1;dashed=1;" parent="1" vertex="1">
          <mxGeometry x="150" y="240" width="420" height="33.5" as="geometry" />
        </mxCell>
        <mxCell id="FDw1WlZBPGpybuS3ri9s-12" value="设备服务" style="rounded=0;whiteSpace=wrap;html=1;fillColor=#ffe6cc;strokeColor=#d79b00;" parent="1" vertex="1">
          <mxGeometry x="277.5" y="372.5" width="70" height="45" as="geometry" />
        </mxCell>
        <mxCell id="FDw1WlZBPGpybuS3ri9s-15" value="" style="rounded=0;whiteSpace=wrap;html=1;dashed=1;" parent="1" vertex="1">
          <mxGeometry x="60" y="140" width="70" height="430" as="geometry" />
        </mxCell>
        <mxCell id="FDw1WlZBPGpybuS3ri9s-16" value="展示层" style="rounded=0;whiteSpace=wrap;html=1;fillColor=#dae8fc;strokeColor=#6c8ebf;" parent="1" vertex="1">
          <mxGeometry x="70" y="165" width="45" height="30" as="geometry" />
        </mxCell>
        <mxCell id="FDw1WlZBPGpybuS3ri9s-17" value="接入层" style="rounded=0;whiteSpace=wrap;html=1;fillColor=#dae8fc;strokeColor=#6c8ebf;" parent="1" vertex="1">
          <mxGeometry x="70" y="243.5" width="45" height="30" as="geometry" />
        </mxCell>
        <mxCell id="FDw1WlZBPGpybuS3ri9s-18" value="网关层" style="rounded=0;whiteSpace=wrap;html=1;fillColor=#dae8fc;strokeColor=#6c8ebf;" parent="1" vertex="1">
          <mxGeometry x="70" y="293.5" width="45" height="30" as="geometry" />
        </mxCell>
        <mxCell id="FDw1WlZBPGpybuS3ri9s-21" value="pc端" style="verticalLabelPosition=bottom;html=1;verticalAlign=top;align=center;strokeColor=none;fillColor=#00BEF2;shape=mxgraph.azure.computer;pointerEvents=1;" parent="1" vertex="1">
          <mxGeometry x="185" y="145" width="50" height="45" as="geometry" />
        </mxCell>
        <mxCell id="FDw1WlZBPGpybuS3ri9s-22" value="上位机" style="sketch=0;aspect=fixed;pointerEvents=1;shadow=0;dashed=0;html=1;strokeColor=none;labelPosition=center;verticalLabelPosition=bottom;verticalAlign=top;align=center;fillColor=#00188D;shape=mxgraph.azure.computer" parent="1" vertex="1">
          <mxGeometry x="315" y="145" width="50" height="45" as="geometry" />
        </mxCell>
        <mxCell id="FDw1WlZBPGpybuS3ri9s-26" value="移动端" style="html=1;verticalLabelPosition=bottom;align=center;labelBackgroundColor=#ffffff;verticalAlign=top;strokeWidth=2;strokeColor=#0080F0;shadow=0;dashed=0;shape=mxgraph.ios7.icons.smartphone;" parent="1" vertex="1">
          <mxGeometry x="480" y="150" width="18" height="30" as="geometry" />
        </mxCell>
        <mxCell id="FDw1WlZBPGpybuS3ri9s-33" value="" style="rounded=0;whiteSpace=wrap;html=1;dashed=1;" parent="1" vertex="1">
          <mxGeometry x="440" y="370" width="130" height="200" as="geometry" />
        </mxCell>
        <mxCell id="FDw1WlZBPGpybuS3ri9s-35" value="" style="rounded=0;whiteSpace=wrap;html=1;dashed=1;" parent="1" vertex="1">
          <mxGeometry x="150" y="500" width="280" height="70" as="geometry" />
        </mxCell>
        <mxCell id="FDw1WlZBPGpybuS3ri9s-43" value="反向代理" style="rounded=1;whiteSpace=wrap;html=1;fillColor=#d5e8d4;strokeColor=#82b366;" parent="1" vertex="1">
          <mxGeometry x="170" y="247.37" width="80" height="18.75" as="geometry" />
        </mxCell>
        <mxCell id="FDw1WlZBPGpybuS3ri9s-51" value="服务层" style="rounded=0;whiteSpace=wrap;html=1;fillColor=#dae8fc;strokeColor=#6c8ebf;" parent="1" vertex="1">
          <mxGeometry x="70" y="395" width="45" height="30" as="geometry" />
        </mxCell>
        <mxCell id="FDw1WlZBPGpybuS3ri9s-53" value="数据层" style="rounded=0;whiteSpace=wrap;html=1;fillColor=#dae8fc;strokeColor=#6c8ebf;" parent="1" vertex="1">
          <mxGeometry x="70" y="520" width="45" height="30" as="geometry" />
        </mxCell>
        <mxCell id="FDw1WlZBPGpybuS3ri9s-55" value="负载均衡" style="rounded=1;whiteSpace=wrap;html=1;fillColor=#d5e8d4;strokeColor=#82b366;" parent="1" vertex="1">
          <mxGeometry x="300" y="247.37" width="80" height="18.75" as="geometry" />
        </mxCell>
        <mxCell id="FDw1WlZBPGpybuS3ri9s-56" value="监控检查" style="rounded=1;whiteSpace=wrap;html=1;fillColor=#d5e8d4;strokeColor=#82b366;" parent="1" vertex="1">
          <mxGeometry x="449" y="249.12" width="80" height="18.75" as="geometry" />
        </mxCell>
        <mxCell id="FDw1WlZBPGpybuS3ri9s-57" value="" style="rounded=0;whiteSpace=wrap;html=1;dashed=1;" parent="1" vertex="1">
          <mxGeometry x="150" y="290" width="420" height="33.5" as="geometry" />
        </mxCell>
        <mxCell id="FDw1WlZBPGpybuS3ri9s-58" value="动态路由" style="rounded=1;whiteSpace=wrap;html=1;fillColor=#d5e8d4;strokeColor=#82b366;" parent="1" vertex="1">
          <mxGeometry x="160" y="297.37" width="80" height="18.75" as="geometry" />
        </mxCell>
        <mxCell id="FDw1WlZBPGpybuS3ri9s-59" value="负载均衡" style="rounded=1;whiteSpace=wrap;html=1;fillColor=#d5e8d4;strokeColor=#82b366;" parent="1" vertex="1">
          <mxGeometry x="250" y="297.37" width="80" height="18.75" as="geometry" />
        </mxCell>
        <mxCell id="FDw1WlZBPGpybuS3ri9s-60" value="安全过滤" style="rounded=1;whiteSpace=wrap;html=1;fillColor=#d5e8d4;strokeColor=#82b366;" parent="1" vertex="1">
          <mxGeometry x="449" y="297.37" width="80" height="18.75" as="geometry" />
        </mxCell>
        <mxCell id="FDw1WlZBPGpybuS3ri9s-61" value="服务熔断" style="rounded=1;whiteSpace=wrap;html=1;fillColor=#d5e8d4;strokeColor=#82b366;" parent="1" vertex="1">
          <mxGeometry x="347.5" y="297.37" width="80" height="18.75" as="geometry" />
        </mxCell>
        <mxCell id="FDw1WlZBPGpybuS3ri9s-67" value="用户服务" style="rounded=0;whiteSpace=wrap;html=1;fillColor=#ffe6cc;strokeColor=#d79b00;" parent="1" vertex="1">
          <mxGeometry x="277.5" y="432.5" width="70" height="45" as="geometry" />
        </mxCell>
        <mxCell id="FDw1WlZBPGpybuS3ri9s-68" value="websocket服务" style="rounded=0;whiteSpace=wrap;html=1;fillColor=#ffe6cc;strokeColor=#d79b00;" parent="1" vertex="1">
          <mxGeometry x="147.25" y="387.5" width="80" height="45" as="geometry" />
        </mxCell>
        <mxCell id="FDw1WlZBPGpybuS3ri9s-69" value="文件服务" style="rounded=0;whiteSpace=wrap;html=1;fillColor=#ffe6cc;strokeColor=#d79b00;" parent="1" vertex="1">
          <mxGeometry x="352.5" y="432.5" width="70" height="45" as="geometry" />
        </mxCell>
        <mxCell id="FDw1WlZBPGpybuS3ri9s-70" value="数据采集" style="rounded=0;whiteSpace=wrap;html=1;fillColor=#ffe6cc;strokeColor=#d79b00;" parent="1" vertex="1">
          <mxGeometry x="352.5" y="372.5" width="70" height="45" as="geometry" />
        </mxCell>
        <mxCell id="FDw1WlZBPGpybuS3ri9s-73" value="mongodb" style="shape=cylinder3;whiteSpace=wrap;html=1;boundedLbl=1;backgroundOutline=1;size=15;" parent="1" vertex="1">
          <mxGeometry x="255" y="507.5" width="60" height="55" as="geometry" />
        </mxCell>
        <mxCell id="FDw1WlZBPGpybuS3ri9s-74" value="mysql" style="shape=cylinder3;whiteSpace=wrap;html=1;boundedLbl=1;backgroundOutline=1;size=15;" parent="1" vertex="1">
          <mxGeometry x="167.25" y="507.5" width="60" height="55" as="geometry" />
        </mxCell>
        <mxCell id="FDw1WlZBPGpybuS3ri9s-75" value="模型文件" style="shape=cylinder3;whiteSpace=wrap;html=1;boundedLbl=1;backgroundOutline=1;size=15;" parent="1" vertex="1">
          <mxGeometry x="340" y="507.5" width="60" height="55" as="geometry" />
        </mxCell>
        <mxCell id="FDw1WlZBPGpybuS3ri9s-80" value="&lt;font style=&quot;font-size: 10px;&quot;&gt;油液传感器&lt;/font&gt;" style="aspect=fixed;perimeter=ellipsePerimeter;html=1;align=center;shadow=0;dashed=0;fontColor=#4277BB;labelBackgroundColor=#ffffff;fontSize=12;spacingTop=3;image;image=img/lib/ibm/users/sensor.svg;" parent="1" vertex="1">
          <mxGeometry x="450" y="425" width="40" height="40" as="geometry" />
        </mxCell>
        <mxCell id="FDw1WlZBPGpybuS3ri9s-85" value="温度传感器" style="aspect=fixed;perimeter=ellipsePerimeter;html=1;align=center;shadow=0;dashed=0;fontColor=#4277BB;labelBackgroundColor=#ffffff;fontSize=12;spacingTop=3;image;image=img/lib/ibm/users/sensor.svg;" parent="1" vertex="1">
          <mxGeometry x="450" y="500" width="40" height="40" as="geometry" />
        </mxCell>
        <mxCell id="FDw1WlZBPGpybuS3ri9s-86" value="转速传感器" style="aspect=fixed;perimeter=ellipsePerimeter;html=1;align=center;shadow=0;dashed=0;fontColor=#4277BB;labelBackgroundColor=#ffffff;fontSize=12;spacingTop=3;image;image=img/lib/ibm/users/sensor.svg;" parent="1" vertex="1">
          <mxGeometry x="515" y="500" width="40" height="40" as="geometry" />
        </mxCell>
        <mxCell id="FDw1WlZBPGpybuS3ri9s-87" value="电流传感器" style="aspect=fixed;perimeter=ellipsePerimeter;html=1;align=center;shadow=0;dashed=0;fontColor=#4277BB;labelBackgroundColor=#ffffff;fontSize=12;spacingTop=3;image;image=img/lib/ibm/users/sensor.svg;" parent="1" vertex="1">
          <mxGeometry x="515" y="425" width="40" height="40" as="geometry" />
        </mxCell>
        <mxCell id="FDw1WlZBPGpybuS3ri9s-95" value="硬件设施" style="rounded=0;whiteSpace=wrap;html=1;dashed=1;fillColor=#d5e8d4;strokeColor=#82b366;" parent="1" vertex="1">
          <mxGeometry x="465" y="380" width="80" height="30" as="geometry" />
        </mxCell>
        <mxCell id="FDw1WlZBPGpybuS3ri9s-104" value="" style="shape=flexArrow;endArrow=classic;html=1;rounded=0;width=2.9530201342281877;endSize=3.785234899328859;endWidth=6.419753086419753;entryX=0.096;entryY=0.997;entryDx=0;entryDy=0;entryPerimeter=0;exitX=0.531;exitY=-0.023;exitDx=0;exitDy=0;fillColor=#e1d5e7;strokeColor=#9673a6;exitPerimeter=0;" parent="1" source="FDw1WlZBPGpybuS3ri9s-68" target="FDw1WlZBPGpybuS3ri9s-57" edge="1">
          <mxGeometry width="50" height="50" relative="1" as="geometry">
            <mxPoint x="220" y="680" as="sourcePoint" />
            <mxPoint x="270" y="630" as="targetPoint" />
          </mxGeometry>
        </mxCell>
        <mxCell id="FDw1WlZBPGpybuS3ri9s-113" value="" style="shape=flexArrow;endArrow=classic;html=1;rounded=0;width=2.9530201342281877;endSize=3.785234899328859;endWidth=6.419753086419753;exitX=0.003;exitY=0.336;exitDx=0;exitDy=0;exitPerimeter=0;fillColor=#e1d5e7;strokeColor=#9673a6;" parent="1" source="FDw1WlZBPGpybuS3ri9s-63" edge="1">
          <mxGeometry width="50" height="50" relative="1" as="geometry">
            <mxPoint x="177.25" y="460" as="sourcePoint" />
            <mxPoint x="227.25" y="410" as="targetPoint" />
          </mxGeometry>
        </mxCell>
        <mxCell id="FDw1WlZBPGpybuS3ri9s-121" value="" style="shape=flexArrow;endArrow=classic;startArrow=classic;html=1;rounded=0;width=3.2;endSize=4.58;endWidth=5.92;startWidth=5.92;startSize=4.58;entryX=0.5;entryY=1;entryDx=0;entryDy=0;fillColor=#e1d5e7;strokeColor=#9673a6;" parent="1" target="FDw1WlZBPGpybuS3ri9s-57" edge="1">
          <mxGeometry width="100" height="100" relative="1" as="geometry">
            <mxPoint x="360" y="370" as="sourcePoint" />
            <mxPoint x="500" y="720" as="targetPoint" />
          </mxGeometry>
        </mxCell>
        <mxCell id="XySIllEL4wYA4_LHRc7c-2" value="" style="rounded=0;whiteSpace=wrap;html=1;" vertex="1" parent="1">
          <mxGeometry x="580" y="140" width="70" height="430" as="geometry" />
        </mxCell>
        <mxCell id="XySIllEL4wYA4_LHRc7c-3" value="git/svn" style="verticalLabelPosition=bottom;html=1;verticalAlign=top;align=center;strokeColor=none;fillColor=#00BEF2;shape=mxgraph.azure.git_repository;" vertex="1" parent="1">
          <mxGeometry x="590" y="155" width="50" height="50" as="geometry" />
        </mxCell>
        <mxCell id="XySIllEL4wYA4_LHRc7c-6" value="maven仓库" style="editableCssRules=.*;shape=image;verticalLabelPosition=bottom;labelBackgroundColor=#ffffff;verticalAlign=top;aspect=fixed;imageAspect=0;image=data:image/svg+xml,PHN2ZyB4bWxucz0iaHR0cDovL3d3dy53My5vcmcvMjAwMC9zdmciIHhtbG5zOnY9Imh0dHBzOi8vdmVjdGEuaW8vbmFubyIgd2lkdGg9IjQyNCIgaGVpZ2h0PSI0MjQiIHZpZXdCb3g9IjAgMCA0MjQgNDI0Ij4mI3hhOwk8c3R5bGUgdHlwZT0idGV4dC9jc3MiPiYjeGE7CS5zdDB7ZmlsbDojNDI4NWY0O30mI3hhOwk8L3N0eWxlPiYjeGE7CTxwYXRoIGNsYXNzPSJzdDAiIGQ9Ik00MjQgMHY0MjRIMFYwek0yMTIgOTcuODQ2Yy0zNy44ODQgMC03MC4xNjQgMjMuOTktODIuNDc4IDU3LjYwOGgwbC0zLjQwMy4wMDFjLTQyLjYzNCAwLTc3LjE5NiAzNC41NjItNzcuMTk2IDc3LjE5NnMzNC41NjIgNzcuMTk2IDc3LjE5NiA3Ny4xOTZoMCAxNzEuNzYzYzQyLjYzNCAwIDc3LjE5Ni0zNC41NjIgNzcuMTk2LTc3LjE5NnMtMzQuNTYyLTc3LjE5Ni03Ny4xOTYtNzcuMTk2aDBsLTMuNDAzLS4wMDFDMjgyLjE2NCAxMjEuODM3IDI0OS44ODQgOTcuODQ2IDIxMiA5Ny44NDZ6IiBmaWxsLXJ1bGU9ImV2ZW5vZGQiLz4mI3hhOzwvc3ZnPg==;" vertex="1" parent="1">
          <mxGeometry x="596.75" y="243.5" width="36.5" height="36.5" as="geometry" />
        </mxCell>
        <mxCell id="XySIllEL4wYA4_LHRc7c-7" value="" style="sketch=0;html=1;dashed=0;whitespace=wrap;fillColor=#2875E2;strokeColor=#ffffff;points=[[0.005,0.63,0],[0.1,0.2,0],[0.9,0.2,0],[0.5,0,0],[0.995,0.63,0],[0.72,0.99,0],[0.5,1,0],[0.28,0.99,0]];shape=mxgraph.kubernetes.icon;prIcon=deploy" vertex="1" parent="1">
          <mxGeometry x="590" y="316.12" width="50" height="48" as="geometry" />
        </mxCell>
        <mxCell id="XySIllEL4wYA4_LHRc7c-8" value="jenkins" style="text;html=1;strokeColor=none;fillColor=none;align=center;verticalAlign=middle;whiteSpace=wrap;rounded=0;" vertex="1" parent="1">
          <mxGeometry x="585" y="357.5" width="60" height="30" as="geometry" />
        </mxCell>
      </root>
    </mxGraphModel>
  </diagram>
</mxfile>
